<?xml version="1.0" standalone="no"?>
<!DOCTYPE svg PUBLIC "-//W3C//DTD SVG 20010904//EN"
 "http://www.w3.org/TR/2001/REC-SVG-20010904/DTD/svg10.dtd">
<svg version="1.0" xmlns="http://www.w3.org/2000/svg"
 width="832.000000pt" height="832.000000pt" viewBox="0 0 832.000000 832.000000"
 preserveAspectRatio="xMidYMid meet">
<metadata>
Created by potrace 1.14, written by Peter Selinger 2001-2017
</metadata>
<g transform="translate(0.000000,832.000000) scale(0.100000,-0.100000)"
fill="#000000" stroke="none">
<path d="M3668 8177 l-247 -142 -1 -3584 c0 -3408 -1 -3583 -17 -3576 -10 3
-517 295 -1128 648 -610 352 -1161 670 -1222 705 l-113 64 0 859 0 859 -37 24
c-44 28 -454 266 -459 266 -2 0 -4 -517 -4 -1149 0 -1056 1 -1149 16 -1155 16
-6 562 -321 2659 -1533 l800 -462 3 2079 c1 1144 1 3016 0 4159 l-3 2080 -247
-142z"/>
<path d="M4410 4160 c0 -2289 3 -4159 8 -4157 32 19 1283 741 2262 1306 657
380 1198 692 1203 693 4 2 6 519 5 1151 l-3 1147 -234 -135 c-128 -74 -240
-140 -247 -146 -12 -10 -14 -151 -14 -869 l0 -857 -1227 -709 c-675 -390
-1233 -710 -1240 -712 -11 -3 -13 630 -13 3580 l-1 3583 -191 110 c-105 61
-218 125 -250 143 l-58 33 0 -4161z"/>
<path d="M2200 7330 c-388 -225 -720 -418 -737 -429 l-33 -21 0 -2148 0 -2148
241 -139 c133 -77 245 -141 250 -143 5 -2 9 430 9 1000 l0 1003 240 138 c131
75 244 137 250 137 7 0 10 -396 10 -1287 l0 -1288 235 -135 c130 -74 240 -136
245 -138 7 -2 10 506 10 1430 l-1 1433 -106 60 c-58 33 -113 65 -121 71 -11 8
10 24 107 79 l121 69 0 1433 c0 788 -3 1433 -7 1432 -5 -1 -325 -185 -713
-409z m230 -1304 l0 -855 -27 -19 c-25 -17 -396 -232 -450 -261 l-23 -12 0
860 0 859 243 141 c133 77 245 140 250 141 4 0 7 -384 7 -854z"/>
<path d="M5410 4735 c0 -1653 3 -3005 6 -3005 3 0 114 62 245 137 l239 138 0
1288 c0 876 3 1287 10 1287 6 0 118 -62 250 -137 l240 -138 0 -1003 c0 -576 4
-1002 9 -1000 5 2 117 66 250 142 l241 140 0 2147 c0 1705 -3 2149 -12 2157
-15 12 -1468 852 -1474 852 -2 0 -4 -1352 -4 -3005z m745 2006 l240 -140 3
-861 2 -861 -33 18 c-19 10 -131 74 -250 143 l-217 125 0 858 c0 471 3 857 8
857 4 0 115 -63 247 -139z"/>
</g>
</svg>
